<?xml version="1.0" encoding="utf-8"?>
<!-- Generator: Adobe Illustrator 16.0.0, SVG Export Plug-In . SVG Version: 6.00 Build 0)  -->
<!DOCTYPE svg PUBLIC "-//W3C//DTD SVG 1.1//EN" "http://www.w3.org/Graphics/SVG/1.1/DTD/svg11.dtd">
<svg version="1.1" id="Layer_1" xmlns="http://www.w3.org/2000/svg" xmlns:xlink="http://www.w3.org/1999/xlink" x="0px" y="0px"
	 width="301px" height="372px" viewBox="0 0 301 372" enable-background="new 0 0 301 372" xml:space="preserve">
<polygon fill="#FFFFFF" points="86.5,259.5 83.5,283 81,317 83,336 94.5,340 112,319.5 123,307.5 142.5,293 162.5,285 165,276.5 
	136.5,226 129.5,221 103,231.5 "/>
<polygon fill="#FFFFFF" points="156,141 156,132.5 162,119 168.5,111 170.5,100 173,96 181,119 186,146.5 186.5,161 171,159 
	162,156.5 155,154 "/>
<path fill="#FFFFFF" d="M108.5,124l-1,14.5l14,32.5c0,0,4.5,23.5,6.5,26.5s13.5,25.5,13.5,25.5l5,14.5L151,249l5.5,15.5l5,8.5l7.5,8
	l21.5-1.5l22-4.5l21.5-2l7.5-6.5L242,239l-1.5-18l-11-14l-6-15l-9.5-11.5l-14-8l-11-8.5l-27-4.5l-18-9l-16-19L108.5,124z"/>
<path fill="#FFFFFF" d="M194.5,161l8.5-8.5c0,0,11-7,12-9s9.5-7,9.5-7l14-10.5l-21,55L195,167L194.5,161z"/>
<polygon fill="#FFFFFF" points="233,202.5 244.5,192.5 254.5,185.5 263.5,175 269.5,164.5 222,181.5 220,185.5 229,204 "/>
<path fill="#FFFFFF" d="M56,107.5l4.5,8.5l4,8l-0.8,8.6l0.9,5.9L66,151l9.5,84.5l4,17l10,7.5l8-14l6-10l6.5-6l10-5l6-10.5
	c0,0-24.5-65.5-24.5-67s-16-31.5-16-31.5l-5-10.5l-4-10.5l-15-3.301l-11-2.199L56,107.5z"/>
<polygon fill="#FFFFFF" points="41,121.5 40,137.5 40.5,145 53.5,150 63.5,148 65.5,134.5 59,114 56,107.5 "/>
<polygon fill="#FFFFFF" points="33.5,33.25 37.25,43.25 42.25,50.75 54.25,48 66.25,52 75.25,51 86.25,46 107,30.75 105,21.75 
	85.25,21.75 81,18.25 51.25,18.75 41.75,19.5 35.25,27.75 "/>
<path fill="#FFFFFF" d="M22,62.75L19,81.5l1.75,6l9-4c0,0,12.25-7,13-7s10-6.25,10-6.25L67,73.5l20,12.75l4.75-8l-5-18L67,50.75
	L44,51l-12.5,1.75L22,62.75z"/>
<polygon fill="#FFFFFF" points="38.25,86.25 42.75,76.5 60.5,77 72.75,81.75 75.5,89 74.75,92 48,89.25 43.5,90 38.5,91.25 "/>
<polygon fill="#FFFFFF" points="30.5,96.75 29.25,109 35.75,118.5 41,121.5 50.75,112.75 54.75,104 50,93.25 48,89.25 29.5,96.75 
	"/>
<polygon fill="#FFFFFF" points="89.75,82 83.5,87.25 88.25,90.5 "/>
<polygon fill="#FFFFFF" points="59.5,116 61.75,147 74.25,145 67.75,114.25 "/>
<g transform="translate(0.000000,372.000000) scale(0.100000,-0.100000)">
	<path fill="#1A237E" d="M787.998,3608.005c-30.996-24.004-80-27.002-212.998-14.004c-190,20-315-80-302.998-240.996
		c1.997-32.002,11.997-74.004,20.996-93.008c17.002-33.994,17.002-33.994-7.998-60c-17.998-17.998-36.001-25-62.998-25
		c-33.003,0-37.002-2.998-34.004-22.998c2.002-12.002-10-57.998-26.997-102.002c-56.001-143.994-38.999-265.996,46.997-340.996
		c28.003-25,36.001-39.004,34.004-60c-3.003-20,2.998-32.002,16.997-40.996c15-9.004,21.001-23.008,21.001-51.006
		c0-32.002,7.002-45.996,37.002-75L355,2444.997l-2.002-92.002c-1.997-85.996,0-93.994,21.001-110.996
		c13.003-10,31.001-32.002,40-50c23.999-47.002,70-72.002,133.999-72.002H600v-87.998c0-65-7.002-110-23.999-170
		c-38.003-127.002-66.001-312.998-73.003-482.002c-15-407.002,75-770.996,258.003-1035c45-65.996,145-173.994,151.001-163.994
		C1053.999,404.001,1187.998,559.001,1335,668.005c108.999,80.996,385.996,210.996,450,211.992c5.996,0-40-27.998-102.002-62.998
		c-165-92.002-261.997-165.996-413.999-317.002c-98.999-97.998-155-163.994-206.997-242.998
		c-40-58.994-72.002-112.002-72.002-115.996c0-12.998,42.998-39.004,70-42.998c20-2.002,35,13.994,98.999,107.998
		c106.001,155.996,165,225.996,278.003,335c257.998,246.992,635,415.996,973.994,435.996l107.002,5.996l6.006,44.004
		c23.994,180,16.992,420.996-20,660l-16.006,102.002l146.006,160.996c136.992,152.002,163.994,190,132.998,190
		c-7.002,0-86.006-27.002-175-60c-90-32.998-167.002-60-172.002-60s-29.004,40-52.998,89.004l-45,88.994L2375,2341.003
		c29.004,78.994,55.996,153.994,59.004,166.992c12.998,42.002-24.004,24.004-130-63.994l-104.004-85l-60,52.998
		c-74.004,65-157.998,117.002-247.002,152.998c-37.998,15-73.994,30-82.002,34.004c-7.998,4.004-25,47.002-36.992,97.002
		c-39.004,150-44.004,163.994-58.008,163.994c-17.998,0-20-6.992-41.992-125l-18.008-100.996h-135
		c-201.997-0.996-360.996-42.002-495.996-129.004c-31.001-18.994-58.999-35-62.998-35c-4.004,0-25,46.006-46.001,103.008
		l-37.002,102.998l35,52.998c60,89.004,71.001,172.998,35,270.996c-31.997,88.008-31.997,90-18.999,115
		c17.998,34.004-1.001,55-51.001,55c-31.001,0-38.999,4.004-38.999,18.008c0,27.998,30,50,112.002,81.992
		c132.998,52.002,173.999,107.002,165.996,221.006c-2.998,47.998-10,65-32.998,88.994c-16.001,17.002-32.998,30-37.998,30
		c-4.004,0-20-13.994-34.004-30c-31.997-37.998-72.998-60-112.998-60c-26.001,0-30,3.008-30,29.004s-32.998,82.002-47.998,80
		C817.998,3629.001,802.998,3619.001,787.998,3608.005z M792.998,3483.005c-2.998-31.006-0.996-32.002,43.003-39.004
		c65-9.004,131.997,0,165,25c36.997,27.002,38.999,27.002,38.999-7.998c0-51.006-41.001-86.006-147.998-127.002
		c-54.004-20.996-109.004-50-125-65c-17.002-17.002-34.004-25.996-43.003-22.002c-8.999,2.998-32.998,0-53.999-7.002
		c-36.001-11.992-41.001-10.996-70,14.004c-38.999,32.002-81.001,34.004-122.002,4.004c-35.996-25-50.996-19.004-85.996,32.998
		c-46.001,65.996-13.003,167.002,65,203.994c30,15,53.999,17.002,131.997,12.002c53.003-2.998,113.999-2.002,136.001,2.998
		C786.001,3521.999,795,3519.001,792.998,3483.005z M590,3178.005c35-21.006,41.001-21.006,90-9.004
		c57.002,15,60,12.998,76.001-32.002c10-28.994,15-32.002,51.997-32.002c42.002,0,42.002,0,42.002-35.996
		c0-20,7.002-52.998,15-72.002c7.998-20,15-57.998,15-83.994l-1.001-48.008l-21.997,45c-46.001,94.004-155,143.008-317.002,143.008
		c-163.999,0-270-51.006-302.998-146.006l-14.004-42.002L215,2904.001c-6.001,30-2.998,47.998,13.999,82.998
		C240,3011.003,250,3048.005,250,3069.997c0,38.008,0,39.004,33.999,33.008c30-5,36.001-2.002,52.002,25.996
		c22.998,37.998,32.998,42.002,78.999,30c32.002-9.004,41.001-7.002,72.998,15C533.999,3204.997,542.002,3204.997,590,3178.005z
		 M633.999,2926.003c37.002-16.006,76.001-60,76.001-87.002c0-24.004-5-24.004-40,0.996c-62.998,45-190,45-252.002-0.996l-27.998-20
		v22.998c0,32.998,27.002,67.998,63.999,84.004C495,2943.005,592.002,2944.001,633.999,2926.003z M615,2803.005
		c42.998-7.002,122.998-49.004,136.001-73.008c5-7.998,86.997-220,182.998-470c135-352.998,177.002-472.998,186.001-535
		c7.002-43.994,25-107.998,40-142.002l27.998-61.992l-50.996-15c-101.001-29.004-171.001-103.008-218.003-231.006
		C895,1211.003,880,1186.003,880,1211.003c0,7.998-37.998,131.992-83.999,275c-48.003,145-87.002,285-91.001,318.994
		c-2.998,32.998-12.002,192.002-21.001,354.004c-13.999,275-13.999,293.994,2.002,305.996c16.001,11.006,15,14.004-12.002,26.006
		c-27.998,13.994-28.999,15.996-37.998,120l-8.003,105l-41.997,12.002c-27.002,6.992-47.002,20-55,35.996
		c-18.999,34.004-7.002,60,21.997,52.002C565,2811.999,592.998,2806.003,615,2803.005z M480,2759.997
		c0-16.992-7.002-32.998-17.002-38.994c-15-7.998-10.996-10,20-11.006c25,0,37.002-5,37.002-13.994
		c0-27.002-12.002-46.006-30-46.006c-12.998,0-16.001-5.996-12.998-23.994c3.999-19.004-1.001-27.998-25-40
		c-16.001-7.998-39.004-28.008-51.001-43.008c-17.002-23.994-22.002-25.996-31.001-12.998c-21.001,31.006-22.998,60-5,80
		c17.998,19.004,17.002,20-7.998,20c-24.004,0-27.002,4.004-27.002,35c0,19.004,5,35,11.001,35s7.998,9.004,3.999,20
		c-5,17.002,2.002,24.004,47.002,45C463.999,2798.005,480,2798.005,480,2759.997z M1779.004,2424.997
		c26.992-153.994,47.998-280.996,46.992-282.998c-1.992-0.996-26.992,2.002-55.996,7.998c-29.004,5-70,10-92.002,10
		c-37.998,0-38.994,1.006-33.994,27.998c2.998,15,18.994,133.008,35.996,262.002c32.002,244.004,40.996,296.006,47.002,270
		C1727.998,2711.999,1752.002,2579.001,1779.004,2424.997z M583.999,2557.995c42.002-47.998,60-105,53.003-163.994
		c-2.002-25,0.996-47.998,8.999-59.004c16.001-22.002,16.997-25,6.001-42.998c-7.002-10-16.001-9.004-45,2.998
		c-44.004,17.998-80,17.998-130,1.006c-34.004-12.002-39.004-12.002-44.004,0.996c-3.999,9.004-0.996,24.004,6.001,35
		c8.003,12.002,11.001,52.998,10,110.996l-1.997,92.002l43.999,32.002c23.999,17.002,46.997,32.002,51.001,32.002
		C545,2599.997,565,2581.003,583.999,2557.995z M1356.001,2217.995c67.998-61.992,123.999-115.996,123.999-120
		c0-3.994-11.001-15-25-23.994c-13.999-9.004-36.001-35-48.999-56.006l-23.999-40l-15,23.008
		c-29.004,45-247.002,420.996-247.002,425.996c0,2.998,25-17.998,56.001-45.996
		C1207.002,2352.995,1287.998,2279.001,1356.001,2217.995z M2254.004,2194.001c-58.008-126.006-107.002-230-109.004-232.002
		c-0.996-2.002-32.998,20-69.004,47.998c-36.992,27.002-71.992,50-78.994,50c-6.006,0,70.996,82.998,172.998,185
		c100.996,101.006,185.996,182.998,187.998,181.006C2359.004,2424.001,2312.998,2319.001,2254.004,2194.001z M1777.002,2086.003
		c120-32.002,240.996-106.006,352.998-216.006c57.002-57.002,99.004-123.994,85-137.998c-2.998-2.998-27.002,15-52.998,40.996
		c-26.006,26.006-51.006,47.002-54.004,47.002c-3.994,0-15.996-13.994-27.998-30.996l-22.002-30l52.998-49.004l54.004-47.998
		l-27.998-10.996c-16.006-6.006-39.004-11.006-52.998-11.006c-52.002,0-156.006,69.004-174.004,116.006
		c-12.998,33.994-115,58.994-232.002,55.996c-133.994-2.998-177.998-5.996-177.998-12.002c0-2.998,8.999-15.996,17.998-27.998
		c17.002-22.002,22.002-22.998,72.998-14.004c69.004,13.008,148.008,0,202.002-31.992c22.998-13.008,77.998-54.004,122.002-91.006
		c65-55,84.004-65,105-60c47.998,11.006,54.004,10,57.998-10c7.002-43.994,10-47.002,34.004-30.996
		c27.998,20,47.998,20,47.998,2.002c0-23.008-87.002-96.006-114.004-96.006c-45,0-38.994-30,39.004-205
		c40.996-92.998,72.002-172.002,67.002-175c-4.004-3.994-54.004-17.002-112.002-28.994c-57.998-13.008-155.996-40-217.998-61.006
		c-129.004-42.998-116.006-47.998-142.002,57.002l-14.004,52.002l43.008,60.996c22.998,32.998,40.996,60,38.994,60
		s-25-7.002-52.002-15c-71.992-22.002-102.998-18.994-120.996,9.004c-24.004,35-15.996,78.994,14.004,85.996
		c13.994,2.998,25.996,11.006,28.994,19.004c2.998,10-7.002,12.002-38.994,8.994c-35-1.992-44.004,0-47.002,15s5,17.002,55,17.002
		l57.998,1.006l-29.004,15c-15.996,8.994-40.996,13.994-56.992,11.992c-39.004-5.996-37.002,12.002,2.998,42.002l32.002,24.004
		L1565,1446.003c-17.002,6.992-39.004,12.998-50.996,13.994c-21.006,0-21.006,2.002-8.003,72.998
		c13.999,81.006,6.997,98.008-30,73.008c-13.999-9.004-28.003-16.006-31.001-16.006s-5,22.002-5,47.998c0,39.004,5,53.008,25,72.002
		c23.999,22.998,33.999,60,16.001,60c-18.999,0-63.999-45-78.003-77.998c-10.996-27.002-16.997-32.002-23.999-20.996
		c-13.999,22.998-10,61.992,11.001,96.992c12.998,21.006,20,50,20,85C1411.001,2021.999,1590,2136.003,1777.002,2086.003z
		 M2585,1974.001c-257.998-242.998-285-266.006-285-247.998c0,10.996-12.002,43.994-27.002,73.994s-27.002,59.004-27.002,64.004
		c-0.996,7.002,406.006,193.994,424.004,195C2672.998,2059.001,2635,2021.003,2585,1974.001z M2240,1419.997
		c0-67.002,4.004-77.002,65-200c35.996-70.996,65-132.002,65-135s-24.004-5-54.004-5h-53.994l-66.006,131.006
		C2160,1281.999,2130,1352.995,2130,1367.995c0,18.008,15,41.006,47.002,74.004c25.996,25.996,50.996,47.998,55,47.998
		C2235.996,1489.997,2240,1457.995,2240,1419.997z M1346.001,1441.999C1355,1436.003,1450,1264.001,1450,1254.001
		c0-2.002-13.999-4.004-31.001-4.004c-56.001,0-117.998-22.002-157.998-55.996c-63.999-55-98.003-136.006-121.001-294.004
		c-18.999-130-46.001-230.996-77.998-295C1043.999,568.005,910,386.999,905,391.999c-2.998,2.002,2.002,27.998,10,57.998
		c27.998,107.002,36.001,238.008,25,401.006c-15,207.998,2.998,330,63.999,432.998c32.002,55.996,123.999,138.994,167.002,152.998
		C1210,1449.997,1330,1452.995,1346.001,1441.999z M1520,1054.997c59.004-117.002,67.998-130.996,95-135
		c29.004-5,27.002-7.002-30-28.994c-131.001-53.008-297.002-143.008-383.999-207.998c-23.999-18.008-46.001-32.002-48.003-29.004
		c-1.997,2.002,1.001,15.996,8.003,32.002c6.001,15.996,26.001,101.992,43.999,190.996c18.999,89.004,42.998,179.004,53.999,200
		c38.003,74.004,98.999,114.004,166.001,110C1452.998,1184.997,1458.999,1176.003,1520,1054.997z"/>
	<path fill="#002664" d="M1625,2019.001c-22.002-5-42.998-12.998-47.002-17.002c-5-5-0.996-27.998,7.002-52.998l15-44.004h95
		c52.002,0,95,2.002,95,5c0.996,2.998,5,24.004,9.004,47.998c7.998,39.004,5.996,44.004-13.008,51.006
		C1747.998,2024.001,1665.996,2029.001,1625,2019.001z"/>
	<path fill="#002664" d="M1865,1924.001c-9.004-25-15.996-46.006-14.004-47.002c2.002-0.996,39.004-19.004,81.006-39.004
		l77.002-36.992l20.996,27.998c10.996,15.996,20,32.998,20,37.998c0,7.998-147.998,102.998-160.996,102.998
		C1885,1969.997,1875,1949.001,1865,1924.001z"/>
	<path fill="#002664" d="M1607.998,1672.995c-45.996-18.994-48.994-40.996-7.998-70.996c34.004-25,50-27.998,50-7.998
		s47.002,28.994,85,15.996c35-12.002,95-2.002,97.998,15c1.006,6.006-20.996,22.002-47.998,37.002
		C1727.002,1694.001,1665.996,1697.995,1607.998,1672.995z"/>
</g>
</svg>
